<?xml version="1.0" encoding="UTF-8" standalone="no"?>
<!-- Created with Inkscape (http://www.inkscape.org/) -->

<svg
   xmlns:dc="http://purl.org/dc/elements/1.1/"
   xmlns:cc="http://creativecommons.org/ns#"
   xmlns:rdf="http://www.w3.org/1999/02/22-rdf-syntax-ns#"
   xmlns:svg="http://www.w3.org/2000/svg"
   xmlns="http://www.w3.org/2000/svg"
   xmlns:sodipodi="http://sodipodi.sourceforge.net/DTD/sodipodi-0.dtd"
   xmlns:inkscape="http://www.inkscape.org/namespaces/inkscape"
   version="1.1"
   id="svg3987"
   xml:space="preserve"
   width="666.66669"
   height="666.66669"
   viewBox="0 0 666.66669 666.66669"
   sodipodi:docname="edited.svg"
   inkscape:version="0.92.5 (2060ec1f9f, 2020-04-08)"><metadata
     id="metadata3993"><rdf:RDF><cc:Work
         rdf:about=""><dc:format>image/svg+xml</dc:format><dc:type
           rdf:resource="http://purl.org/dc/dcmitype/StillImage" /><dc:title></dc:title></cc:Work></rdf:RDF></metadata><defs
     id="defs3991"><clipPath
       clipPathUnits="userSpaceOnUse"
       id="clipPath4005"><path
         d="M 0,500 H 500 V 0 H 0 Z"
         id="path4003"
         inkscape:connector-curvature="0" /></clipPath><clipPath
       clipPathUnits="userSpaceOnUse"
       id="clipPath4025"><path
         d="M 0,500 H 500 V 0 H 0 Z"
         id="path4023"
         inkscape:connector-curvature="0" /></clipPath><clipPath
       clipPathUnits="userSpaceOnUse"
       id="clipPath4045"><path
         d="M 0,500 H 500 V 0 H 0 Z"
         id="path4043"
         inkscape:connector-curvature="0" /></clipPath><clipPath
       clipPathUnits="userSpaceOnUse"
       id="clipPath4129"><path
         d="M 0,500 H 500 V 0 H 0 Z"
         id="path4127"
         inkscape:connector-curvature="0" /></clipPath></defs><sodipodi:namedview
     pagecolor="#ffffff"
     bordercolor="#666666"
     borderopacity="1"
     objecttolerance="10"
     gridtolerance="10"
     guidetolerance="10"
     inkscape:pageopacity="0"
     inkscape:pageshadow="2"
     inkscape:window-width="1366"
     inkscape:window-height="702"
     id="namedview3989"
     showgrid="false"
     inkscape:zoom="1.0012632"
     inkscape:cx="255.43191"
     inkscape:cy="251.52459"
     inkscape:window-x="-8"
     inkscape:window-y="-8"
     inkscape:window-maximized="1"
     inkscape:current-layer="g3995" /><g
     id="g3995"
     inkscape:groupmode="layer"
     inkscape:label="269631-P57X0S-501"
     transform="matrix(1.3333333,0,0,-1.3333333,0,666.66667)"><path
       d="M 0,0 H 500 V 500 H 0 Z"
       style="fill:#efeff1;fill-opacity:1;fill-rule:nonzero;stroke:none"
       id="path3997"
       inkscape:connector-curvature="0" /><g
       id="g3999"><g
         id="g4001"
         clip-path="url(#clipPath4005)"><g
           id="g4007"
           transform="translate(270.0746,183.3057)"><path
             d="m 0,0 c -23.769,3.196 -52.485,0.42 -64.14,-6.202 -11.654,-6.621 -1.835,-14.58 21.934,-17.777 23.769,-3.196 52.485,-0.419 64.14,6.202 C 33.589,-11.155 23.769,-3.196 0,0"
             style="fill:#3a3a3a;fill-opacity:1;fill-rule:nonzero;stroke:none"
             id="path4009"
             inkscape:connector-curvature="0" /></g><g
           id="g4011"
           transform="translate(205.9305,173.0244)"><path
             d="M 0,0 C 11.654,6.621 40.371,9.398 64.139,6.202 78.76,4.235 88.092,0.467 90.405,-3.685 93.571,1.934 83.467,7.682 64.139,10.281 40.371,13.478 11.654,10.701 0,4.079 -4.485,1.531 -5.778,-1.215 -4.332,-3.812 -3.604,-2.521 -2.177,-1.237 0,0"
             style="fill:#b3b3b3;fill-opacity:1;fill-rule:nonzero;stroke:none"
             id="path4013"
             inkscape:connector-curvature="0" /></g></g></g><text
       transform="matrix(1,0,0,-1,208.751,122.1748)"
       style="font-variant:normal;font-weight:600;font-stretch:normal;font-size:30px;font-family:'Antipasto Pro DemiBold';-inkscape-font-specification:AntipastoPro-DemiBold;writing-mode:lr-tb;fill:#b3b3b3;fill-opacity:1;fill-rule:nonzero;stroke:none"
       id="text4017"><tspan
         x="0 21.540001 43.080002 58.860001 74.639999"
         y="0"
         sodipodi:role="line"
         id="tspan4015">OOPS!</tspan></text>
<g
       id="g4019"><g
         id="g4021"
         clip-path="url(#clipPath4025)"><g
           id="g4027"
           transform="translate(397.0003,411)"><path
             d="M 0,0 -9.702,-50 H 0.089 L 18,0 Z m -13,-67 h 7 l 2.865,8 h -8.313 z m -269,1 h -18 l 17.91,-50 h 9.791 z m 3.134,-59 2.866,-8 h 7 l -1.553,8 z M -61,52 -225,27 -59,42 Z m -230,-49 -4,-6 17,-52 z M -15,19 -27,-122 -9,16 Z m -20.145,-157 -63.513,-0.854 0.629,-20.146 -59,-12 15,-8 -11,-16 39,-14 -14.05,-18.54 -19.279,-25.45 c -1.091,-0.01 -2.171,-0.01 -3.251,0.01 l 15.91,26.11 9.67,15.87 -39,12 8,16 -30,15 59,17 -18.709,11.513 L -258.31,-141 -283,12 -23,37 Z"
             style="fill:#ffffff;fill-opacity:1;fill-rule:nonzero;stroke:none"
             id="path4029"
             inkscape:connector-curvature="0" /></g></g></g><text
       transform="matrix(1,0,0,-1,152,312.4897)"
       style="font-variant:normal;font-weight:normal;font-stretch:normal;font-size:106.98719788px;font-family:'Aller Display';-inkscape-font-specification:AllerDisplay;writing-mode:lr-tb;fill:#b3b3b3;fill-opacity:1;fill-rule:nonzero;stroke:none"
       id="text4033"><tspan
         x="0 66.011101 128.91957"
         y="0"
         sodipodi:role="line"
         id="tspan4031">404</tspan></text>
<text
       transform="matrix(1,0,0,-1,210.1602,391.4985)"
       style="font-variant:normal;font-weight:normal;font-stretch:normal;font-size:26.07320023px;font-family:'Aller Display';-inkscape-font-specification:AllerDisplay;writing-mode:lr-tb;fill:#efeff1;fill-opacity:1;fill-rule:nonzero;stroke:none"
       id="text4037"><tspan
         x="0 13.740577 29.801668 45.080563 63.618607"
         y="0"
         sodipodi:role="line"
         id="tspan4035">ERROR</tspan></text>
<g
       id="g4039"><g
         id="g4041"
         clip-path="url(#clipPath4045)"><g
           id="g4047"
           transform="translate(174.6742,168.0869)"><path
             d="m 0,0 c 7.9,-4.314 1.244,-9.5 -14.869,-11.582 -16.112,-2.083 -35.579,-0.273 -43.479,4.041 -7.901,4.313 -1.244,9.499 14.869,11.582 C -27.367,6.123 -7.9,4.314 0,0"
             style="fill:#d7d7dd;fill-opacity:1;fill-rule:nonzero;stroke:none"
             id="path4049"
             inkscape:connector-curvature="0" /></g><g
           id="g4051"
           transform="translate(178.0233,166.2607)"><path
             d="M 0,0 C -0.183,0.796 -0.365,1.591 -0.548,2.386 -0.504,2.194 -0.488,2.004 -0.493,1.813 -0.488,2.004 -0.504,2.195 -0.548,2.387 -0.721,3.131 -1.1,3.817 -1.706,4.486 -1.822,4.615 -1.983,4.783 -2.113,4.898 -2.366,5.119 -2.713,5.4 -2.98,5.604 -3.302,5.85 -3.772,6.12 -4.119,6.33 c -0.452,0.244 -1.062,0.555 -1.529,0.769 -0.398,0.183 -0.94,0.406 -1.353,0.556 -0.796,0.289 -1.874,0.633 -2.685,0.878 -0.522,0.157 -1.229,0.328 -1.758,0.46 -1.201,0.299 -3.123,0.663 -3.57,0.736 -0.578,0.092 -1.346,0.231 -1.926,0.308 -1.206,0.161 -2.815,0.366 -4.026,0.486 -1.246,0.124 -5.716,0.521 -10.907,0.438 -1.618,-0.025 -1.618,-0.025 -4.47,-0.161 -0.665,-0.031 -1.549,-0.109 -2.212,-0.155 -0.706,-0.051 -2.035,-0.173 -4.36,-0.47 -0.187,-0.025 -1.881,-0.244 -3.927,-0.639 -1.032,-0.198 -2.396,-0.522 -3.416,-0.775 -1.221,-0.304 -3.241,-0.959 -4.51,-1.531 -0.757,-0.341 -1.354,-0.621 -2.129,-1.104 -0.767,-0.478 -1.131,-0.793 -1.6,-1.22 -0.045,-0.042 -0.29,-0.27 -0.617,-0.681 C -59.277,4.02 -59.36,3.884 -59.525,3.613 -59.526,3.61 -59.665,3.381 -59.8,3.04 -59.872,2.86 -59.879,2.832 -59.973,2.486 -59.996,2.392 -59.997,2.296 -60.007,2.2 c 0.01,0.096 0.011,0.191 0.034,0.285 -0.186,-0.794 -0.371,-1.589 -0.557,-2.383 -0.331,-1.417 0.627,-2.879 3.04,-4.25 7.373,-4.189 25.537,-5.945 40.573,-3.923 C -5.564,-6.545 0.757,-3.301 0,0"
             style="fill:#ffae5e;fill-opacity:1;fill-rule:nonzero;stroke:none"
             id="path4053"
             inkscape:connector-curvature="0" /></g><g
           id="g4055"
           transform="translate(166.16,171.79)"><path
             d="m 0,0 c -4.982,2.83 -17.257,4.018 -27.417,2.651 -10.16,-1.366 -14.357,-4.768 -9.375,-7.598 4.981,-2.831 17.256,-4.018 27.416,-2.652 C 0.784,-6.232 4.982,-2.83 0,0 m 6.99,0.939 c 6.874,-3.905 1.082,-8.599 -12.938,-10.485 -14.021,-1.886 -30.96,-0.248 -37.834,3.658 -6.875,3.907 -1.082,8.601 12.938,10.487 14.02,1.884 30.959,0.247 37.834,-3.66"
             style="fill:#ff924d;fill-opacity:1;fill-rule:nonzero;stroke:none"
             id="path4057"
             inkscape:connector-curvature="0" /></g><g
           id="g4059"
           transform="translate(153.2274,222.5098)"><path
             d="M 0,0 C -0.292,1.027 -1.063,1.494 -1.392,1.694 -1.684,1.852 -2.367,2.222 -3.842,2.4 -4.441,2.474 -5.657,2.567 -7.064,2.383 -8.612,2.18 -9.314,1.727 -9.579,1.557 -9.852,1.38 -10.107,1.136 -10.335,0.83 -10.568,0.52 -10.673,0.193 -10.73,0.019 c -0.074,-0.258 0.093,-0.526 0.534,-0.776 1.308,-0.743 4.531,-1.055 7.2,-0.696 C -0.957,-1.179 0.167,-0.593 0,0"
             style="fill:#ff924d;fill-opacity:1;fill-rule:nonzero;stroke:none"
             id="path4061"
             inkscape:connector-curvature="0" /></g><g
           id="g4063"
           transform="translate(127.3348,169.7988)"><path
             d="m 0,0 c 0.455,1.582 1.062,3.691 1.517,5.272 0.227,0.791 0.53,1.846 0.757,2.637 0.455,1.582 1.062,3.692 1.517,5.274 0.455,1.582 1.061,3.69 1.516,5.272 0.228,0.791 0.531,1.846 0.758,2.637 0.455,1.582 1.061,3.691 1.517,5.273 0.455,1.582 1.061,3.691 1.516,5.273 0.227,0.791 0.53,1.845 0.758,2.636 0.455,1.582 1.061,3.692 1.516,5.274 0.455,1.582 1.062,3.69 1.517,5.272 0.227,0.791 0.53,1.846 0.757,2.637 0.456,1.582 1.062,3.691 1.517,5.273 -0.074,-0.258 0.093,-0.526 0.534,-0.776 1.308,-0.743 4.531,-1.056 7.199,-0.696 2.04,0.274 3.165,0.861 2.997,1.454 0.448,-1.583 1.047,-3.694 1.496,-5.278 0.449,-1.583 1.048,-3.695 1.497,-5.278 0.449,-1.584 1.048,-3.695 1.497,-5.278 0.449,-1.584 1.047,-3.695 1.496,-5.278 0.449,-1.583 1.048,-3.695 1.497,-5.279 0.449,-1.583 1.048,-3.694 1.497,-5.278 0.224,-0.791 0.523,-1.847 0.748,-2.639 0.449,-1.583 1.048,-3.694 1.497,-5.278 0.449,-1.583 1.048,-3.694 1.496,-5.277 0.225,-0.792 0.524,-1.848 0.749,-2.64 0.449,-1.583 1.048,-3.694 1.496,-5.278 C 41.5,-2.328 37.217,-4.563 29.449,-5.607 19.29,-6.974 7.015,-5.787 2.033,-2.956 0.354,-2.003 -0.283,-0.984 0,0"
             style="fill:#ffae5e;fill-opacity:1;fill-rule:nonzero;stroke:none"
             id="path4065"
             inkscape:connector-curvature="0" /></g><g
           id="g4067"
           transform="translate(160.1546,198.0811)"><path
             d="m 0,0 c 0.387,-1.364 -2.199,-2.714 -6.891,-3.345 -6.135,-0.825 -13.548,-0.108 -16.557,1.602 -1.013,0.576 -1.398,1.19 -1.227,1.785 0.455,1.582 1.062,3.691 1.516,5.272 0.228,0.791 0.531,1.846 0.759,2.637 0.314,1.093 0.733,2.55 1.047,3.643 -0.125,-0.435 0.156,-0.886 0.899,-1.308 2.204,-1.252 7.634,-1.776 12.128,-1.173 3.436,0.463 5.33,1.451 5.047,2.45 C -2.83,9.98 -2.231,7.869 -1.782,6.286 -1.558,5.494 -1.258,4.438 -1.034,3.646 -0.724,2.553 -0.31,1.094 0,0"
             style="fill:#ffffff;fill-opacity:1;fill-rule:nonzero;stroke:none"
             id="path4069"
             inkscape:connector-curvature="0" /></g><g
           id="g4071"
           transform="translate(166.1327,177)"><path
             d="m 0,0 c 0.576,-2.03 -3.272,-4.038 -10.251,-4.977 -9.128,-1.227 -20.156,-0.161 -24.632,2.382 -1.509,0.858 -2.08,1.773 -1.826,2.657 0.455,1.582 1.061,3.691 1.516,5.273 0.228,0.791 0.531,1.846 0.758,2.637 0.314,1.092 0.733,2.549 1.048,3.641 -0.209,-0.724 0.26,-1.475 1.497,-2.177 3.671,-2.086 12.717,-2.961 20.203,-1.955 5.725,0.771 8.88,2.417 8.408,4.082 L 0,0"
             style="fill:#ffffff;fill-opacity:1;fill-rule:nonzero;stroke:none"
             id="path4073"
             inkscape:connector-curvature="0" /></g><g
           id="g4075"
           transform="translate(177.4754,168.6475)"><path
             d="M 0,0 V -0.001 Z"
             style="fill:#ffae5e;fill-opacity:1;fill-rule:nonzero;stroke:none"
             id="path4077"
             inkscape:connector-curvature="0" /></g><g
           id="g4079"
           transform="translate(368.805,172.1279)"><path
             d="m 0,0 c 16.112,-2.083 22.77,-7.269 14.869,-11.582 -7.9,-4.314 -27.367,-6.124 -43.479,-4.041 -16.113,2.082 -22.77,7.268 -14.869,11.582 C -35.578,0.273 -16.112,2.082 0,0"
             style="fill:#d7d7dd;fill-opacity:1;fill-rule:nonzero;stroke:none"
             id="path4081"
             inkscape:connector-curvature="0" /></g><g
           id="g4083"
           transform="translate(321.9769,166.2607)"><path
             d="M 0,0 C 0.183,0.796 0.365,1.591 0.548,2.386 0.504,2.194 0.488,2.004 0.492,1.813 0.488,2.004 0.504,2.195 0.548,2.387 0.721,3.131 1.1,3.817 1.705,4.486 1.822,4.615 1.982,4.783 2.113,4.898 2.365,5.119 2.713,5.4 2.979,5.604 3.302,5.85 3.772,6.12 4.119,6.33 4.57,6.574 5.181,6.885 5.647,7.099 c 0.399,0.183 0.942,0.406 1.354,0.556 0.796,0.289 1.873,0.633 2.685,0.878 0.522,0.157 1.229,0.328 1.757,0.459 1.202,0.3 3.123,0.664 3.571,0.737 0.578,0.092 1.345,0.231 1.925,0.308 1.207,0.161 2.816,0.366 4.027,0.486 1.246,0.124 5.716,0.521 10.906,0.438 1.619,-0.025 1.619,-0.025 4.471,-0.161 0.665,-0.031 1.549,-0.109 2.212,-0.155 0.706,-0.051 2.036,-0.173 4.36,-0.47 0.187,-0.025 1.881,-0.244 3.927,-0.639 1.032,-0.198 2.396,-0.522 3.416,-0.775 1.221,-0.304 3.241,-0.959 4.51,-1.531 0.757,-0.341 1.353,-0.621 2.129,-1.104 0.766,-0.478 1.131,-0.793 1.599,-1.22 0.046,-0.042 0.29,-0.27 0.617,-0.681 C 59.276,4.02 59.359,3.884 59.524,3.613 59.526,3.61 59.664,3.381 59.8,3.04 59.871,2.86 59.879,2.832 59.973,2.486 59.995,2.392 59.997,2.296 60.007,2.2 59.997,2.296 59.995,2.391 59.974,2.485 60.159,1.691 60.345,0.896 60.529,0.102 60.86,-1.315 59.903,-2.777 57.489,-4.148 50.117,-8.337 31.952,-10.093 16.917,-8.071 5.564,-6.545 -0.758,-3.301 0,0"
             style="fill:#ffae5e;fill-opacity:1;fill-rule:nonzero;stroke:none"
             id="path4085"
             inkscape:connector-curvature="0" /></g><g
           id="g4087"
           transform="translate(333.8402,171.79)"><path
             d="m 0,0 c -4.982,-2.83 -0.784,-6.232 9.376,-7.599 10.16,-1.366 22.435,-0.179 27.416,2.652 4.982,2.83 0.785,6.232 -9.375,7.598 C 17.257,4.018 4.981,2.83 0,0 M 30.844,4.599 C 44.864,2.713 50.657,-1.981 43.782,-5.888 36.907,-9.794 19.969,-11.432 5.948,-9.546 -8.072,-7.66 -13.864,-2.966 -6.99,0.939 c 6.875,3.907 23.813,5.544 37.834,3.66"
             style="fill:#ff924d;fill-opacity:1;fill-rule:nonzero;stroke:none"
             id="path4089"
             inkscape:connector-curvature="0" /></g><g
           id="g4091"
           transform="translate(346.7728,222.5098)"><path
             d="M 0,0 C 0.292,1.027 1.062,1.494 1.392,1.694 1.684,1.852 2.366,2.222 3.842,2.4 4.441,2.474 5.656,2.567 7.063,2.383 8.612,2.18 9.314,1.727 9.578,1.557 9.853,1.38 10.106,1.136 10.335,0.83 10.567,0.52 10.673,0.193 10.729,0.019 10.804,-0.239 10.637,-0.507 10.195,-0.757 8.888,-1.5 5.664,-1.812 2.996,-1.453 0.957,-1.179 -0.168,-0.593 0,0"
             style="fill:#ff924d;fill-opacity:1;fill-rule:nonzero;stroke:none"
             id="path4093"
             inkscape:connector-curvature="0" /></g><g
           id="g4095"
           transform="translate(372.6654,169.7988)"><path
             d="m 0,0 c -0.455,1.582 -1.062,3.691 -1.517,5.272 -0.227,0.791 -0.531,1.846 -0.757,2.637 -0.455,1.582 -1.062,3.692 -1.517,5.274 -0.455,1.582 -1.062,3.69 -1.517,5.272 -0.227,0.791 -0.53,1.846 -0.757,2.637 -0.456,1.582 -1.062,3.691 -1.517,5.273 -0.455,1.582 -1.062,3.691 -1.516,5.273 -0.227,0.791 -0.531,1.845 -0.758,2.636 -0.456,1.582 -1.062,3.692 -1.516,5.274 -0.455,1.582 -1.062,3.69 -1.517,5.272 -0.227,0.791 -0.53,1.846 -0.757,2.637 -0.456,1.582 -1.062,3.691 -1.517,5.273 0.074,-0.258 -0.093,-0.526 -0.534,-0.776 -1.308,-0.743 -4.532,-1.056 -7.199,-0.696 -2.041,0.274 -3.165,0.861 -2.997,1.454 -0.449,-1.583 -1.047,-3.694 -1.497,-5.278 -0.449,-1.583 -1.047,-3.695 -1.496,-5.278 -0.449,-1.584 -1.048,-3.695 -1.497,-5.278 -0.449,-1.584 -1.048,-3.695 -1.497,-5.278 -0.448,-1.583 -1.047,-3.695 -1.496,-5.279 -0.449,-1.583 -1.048,-3.694 -1.497,-5.278 -0.225,-0.791 -0.523,-1.847 -0.748,-2.639 -0.449,-1.583 -1.048,-3.694 -1.497,-5.278 -0.448,-1.583 -1.048,-3.694 -1.496,-5.277 -0.225,-0.792 -0.525,-1.848 -0.749,-2.64 -0.449,-1.583 -1.047,-3.694 -1.496,-5.278 -0.641,-2.259 3.641,-4.494 11.41,-5.538 10.16,-1.367 22.434,-0.18 27.416,2.651 C -0.354,-2.003 0.282,-0.984 0,0"
             style="fill:#ffae5e;fill-opacity:1;fill-rule:nonzero;stroke:none"
             id="path4097"
             inkscape:connector-curvature="0" /></g><g
           id="g4099"
           transform="translate(339.8451,198.0811)"><path
             d="m 0,0 c -0.387,-1.364 2.199,-2.714 6.891,-3.345 6.135,-0.825 13.548,-0.108 16.557,1.602 1.014,0.576 1.398,1.19 1.227,1.785 -0.454,1.582 -1.061,3.691 -1.516,5.272 -0.227,0.791 -0.531,1.846 -0.759,2.637 -0.313,1.093 -0.732,2.55 -1.046,3.643 0.125,-0.435 -0.157,-0.886 -0.9,-1.308 C 18.251,9.034 12.82,8.51 8.326,9.113 4.891,9.576 2.996,10.564 3.279,11.563 2.83,9.98 2.231,7.869 1.782,6.286 1.558,5.494 1.259,4.438 1.034,3.646 0.724,2.553 0.311,1.094 0,0"
             style="fill:#ffffff;fill-opacity:1;fill-rule:nonzero;stroke:none"
             id="path4101"
             inkscape:connector-curvature="0" /></g><g
           id="g4103"
           transform="translate(333.8675,177)"><path
             d="m 0,0 c -0.576,-2.03 3.271,-4.038 10.251,-4.977 9.128,-1.227 20.156,-0.161 24.632,2.382 1.509,0.858 2.08,1.773 1.826,2.657 -0.455,1.582 -1.062,3.691 -1.517,5.273 -0.227,0.791 -0.53,1.846 -0.757,2.637 -0.315,1.092 -0.734,2.549 -1.048,3.641 C 33.596,10.889 33.127,10.138 31.89,9.436 28.219,7.35 19.173,6.475 11.687,7.481 5.963,8.252 2.807,9.898 3.278,11.563 L 0,0"
             style="fill:#ffffff;fill-opacity:1;fill-rule:nonzero;stroke:none"
             id="path4105"
             inkscape:connector-curvature="0" />
</g>
<g
           id="g4107"
           transform="translate(322.5247,168.6475)"><path
             d="M 0,0 V -0.001 Z"
             style="fill:#ffae5e;fill-opacity:1;fill-rule:nonzero;stroke:none"
             id="path4109"
             inkscape:connector-curvature="0" />
</g>

				</g>
			</g>
		 </g>
</svg>